<svg width="24" height="23" viewBox="0 0 24 23" fill="none" xmlns="http://www.w3.org/2000/svg">
<path d="M12.4384 1.0669L13.2962 5.12131C13.3716 5.47618 13.6483 5.75281 14.0031 5.82825L18.0576 6.68608C18.541 6.78806 18.541 7.47963 18.0576 7.58162L14.0031 8.43945C13.6483 8.51489 13.3716 8.79152 13.2962 9.14639L12.4384 13.2008C12.3364 13.6842 11.6448 13.6842 11.5428 13.2008L10.685 9.14639C10.6096 8.79152 10.3329 8.51489 9.97807 8.43945L5.92505 7.58023C5.44165 7.47824 5.44165 6.78667 5.92505 6.68468L9.97946 5.82685C10.3343 5.75141 10.611 5.47478 10.6864 5.11992L11.5442 1.0655C11.6448 0.5821 12.3364 0.582101 12.4384 1.0669Z" fill="black"/>
<path d="M11.0547 22.7074H6.21648C6.0153 22.7074 5.85323 22.5453 5.85323 22.3441V21.1705C5.85323 20.6117 5.67859 20.0668 5.35167 19.6114L2.76701 15.9551C2.37443 15.3572 2 14.7606 2 13.9908L2.16626 6.26476C2.18721 5.25186 3.6919 5.24208 3.72823 6.25359L3.9364 12.1857C3.94757 12.5126 4.06772 12.827 4.28008 13.0771L6.32685 15.4955C6.80746 16.0641 7.67786 15.3921 7.25034 14.7829L5.4788 12.2598C4.72576 11.3167 6.08655 10.1529 6.90106 11.0443L10.011 14.449C10.915 15.4382 11.4165 16.7305 11.4165 18.0717V22.3483C11.4137 22.5467 11.2531 22.7074 11.0547 22.7074Z" fill="black"/>
<path d="M12.9478 22.7074H17.786C17.9872 22.7074 18.1492 22.5453 18.1492 22.3441V21.1705C18.1492 20.6117 18.3239 20.0668 18.6508 19.6114L21.2354 15.9551C21.628 15.3572 22.0025 14.7606 22.0025 13.9908L21.8362 6.26476C21.8152 5.25186 20.3106 5.24208 20.2742 6.25359L20.0661 12.1857C20.0549 12.5126 19.9347 12.827 19.7224 13.0771L17.6756 15.4955C17.195 16.0641 16.3246 15.3921 16.7521 14.7829L18.5237 12.2598C19.2767 11.3167 17.9159 10.1529 17.1014 11.0443L13.9914 14.449C13.0875 15.4382 12.5859 16.7305 12.5859 18.0717V22.3483C12.5887 22.5467 12.7494 22.7074 12.9478 22.7074Z" fill="black"/>
</svg>
