<svg width="24" height="24" viewBox="0 0 24 24" fill="none" xmlns="http://www.w3.org/2000/svg">
<path d="M12.374 1.73457L13.0975 5.15444C13.1612 5.45376 13.3945 5.68709 13.6938 5.75073L17.1137 6.4743C17.5214 6.56033 17.5214 7.14366 17.1137 7.22969L13.6938 7.95325C13.3945 8.01689 13.1612 8.25022 13.0975 8.54955L12.374 11.9694C12.2879 12.3772 11.7046 12.3772 11.6186 11.9694L10.895 8.54955C10.8314 8.25022 10.598 8.01689 10.2987 7.95325L6.88003 7.22851C6.47228 7.14248 6.47228 6.55915 6.88003 6.47312L10.2999 5.74955C10.5992 5.68592 10.8325 5.45258 10.8962 5.15326L11.6198 1.7334C11.7046 1.32565 12.2879 1.32565 12.374 1.73457Z" fill="black"/>
<path d="M11.2 19.9996H7.11906C6.94937 19.9996 6.81267 19.8629 6.81267 19.6932V18.7033C6.81267 18.2319 6.66536 17.7723 6.3896 17.3882L4.20947 14.3042C3.87832 13.7998 3.5625 13.2966 3.5625 12.6473L3.70274 6.13042C3.72041 5.27605 4.9896 5.2678 5.02024 6.121L5.19583 11.1247C5.20526 11.4005 5.30661 11.6656 5.48573 11.8765L7.21216 13.9164C7.61755 14.3961 8.35172 13.8292 7.99112 13.3154L6.49684 11.1872C5.86166 10.3917 7.00947 9.41005 7.6965 10.1619L10.3197 13.0338C11.0822 13.8681 11.5053 14.9582 11.5053 16.0895V19.6967C11.5029 19.8641 11.3674 19.9996 11.2 19.9996Z" fill="black"/>
<path d="M12.7974 19.9996H16.8784C17.0481 19.9996 17.1848 19.8629 17.1848 19.6932V18.7033C17.1848 18.2319 17.3321 17.7723 17.6078 17.3882L19.788 14.3042C20.1191 13.7998 20.4349 13.2966 20.4349 12.6473L20.2947 6.13042C20.277 5.27605 19.0078 5.2678 18.9772 6.121L18.8016 11.1247C18.7922 11.4005 18.6908 11.6656 18.5117 11.8765L16.7853 13.9164C16.3799 14.3961 15.6457 13.8292 16.0063 13.3154L17.5006 11.1872C18.1358 10.3917 16.988 9.41005 16.3009 10.1619L13.6777 13.0338C12.9153 13.8681 12.4922 14.9582 12.4922 16.0895V19.6967C12.4945 19.8641 12.6301 19.9996 12.7974 19.9996Z" fill="black"/>
</svg>
