<svg width="20" height="20" viewBox="0 0 20 20" fill="none" xmlns="http://www.w3.org/2000/svg">
<path d="M10.2978 1.75467L10.8983 4.5931C10.9512 4.84154 11.1448 5.0352 11.3932 5.08802L14.2315 5.68857C14.5699 5.75997 14.5699 6.24412 14.2315 6.31553L11.3932 6.91607C11.1448 6.96889 10.9512 7.16255 10.8983 7.41099L10.2978 10.2494C10.2264 10.5878 9.7423 10.5878 9.6709 10.2494L9.07038 7.41099C9.01757 7.16255 8.82391 6.96889 8.57549 6.91607L5.73818 6.31455C5.39977 6.24315 5.39977 5.75899 5.73818 5.68759L8.57647 5.08704C8.82489 5.03422 9.01854 4.84056 9.07136 4.59212L9.67188 1.75369C9.7423 1.41527 10.2264 1.41527 10.2978 1.75467Z" fill="black"/>
<path d="M9.33481 16.9148H5.94784C5.807 16.9148 5.69354 16.8013 5.69354 16.6604V15.8388C5.69354 15.4476 5.57129 15.0662 5.34243 14.7473L3.53304 12.1876C3.25821 11.769 2.99609 11.3514 2.99609 10.8124L3.11248 5.40356C3.12715 4.69444 4.18051 4.6876 4.20594 5.39574L4.35167 9.54873C4.35949 9.7776 4.4436 9.99767 4.59226 10.1727L6.0251 11.8658C6.36155 12.2639 6.97087 11.7935 6.67159 11.367L5.43143 9.60056C4.90426 8.94035 5.85688 8.1256 6.42708 8.74962L8.60421 11.1332C9.23701 11.8257 9.58812 12.7305 9.58812 13.6694V16.6634C9.58617 16.8023 9.47369 16.9148 9.33481 16.9148Z" fill="black"/>
<path d="M10.6557 16.9148H14.0426C14.1835 16.9148 14.2969 16.8013 14.2969 16.6604V15.8388C14.2969 15.4476 14.4192 15.0662 14.648 14.7473L16.4574 12.1876C16.7323 11.769 16.9944 11.3514 16.9944 10.8124L16.878 5.40356C16.8633 4.69444 15.81 4.6876 15.7845 5.39574L15.6388 9.54873C15.631 9.7776 15.5469 9.99767 15.3982 10.1727L13.9654 11.8658C13.6289 12.2639 13.0196 11.7935 13.3189 11.367L14.559 9.60056C15.0862 8.94035 14.1336 8.1256 13.5634 8.74962L11.3863 11.1332C10.7535 11.8257 10.4023 12.7305 10.4023 13.6694V16.6634C10.4043 16.8023 10.5168 16.9148 10.6557 16.9148Z" fill="black"/>
</svg>
